Coordinates
version=1
nRows=65
nColumns=12
inDegrees=yes

Units are S.I. units (second, meters, Newtons, ...)
Angles are in degrees

endheader
time	SC_y	SC_z	SC_x	AC_y	AC_z	AC_x	GH_y	GH_z	GH_yy	EL_x	PS_y
       0.0              -20.75          21.07          2.999          48.16         -14.08         -13.24         -57.57         0.8524         -5.909          100.5          35.24
  0.005908              -20.75          21.07            3.0          48.16         -14.08         -13.24         -57.54         0.8611         -5.888          100.5          35.24
   0.01182              -20.76          21.07          3.001          48.16         -14.08         -13.24         -57.51         0.8704         -5.866          100.5          35.24
   0.01772              -20.77          21.07          3.003          48.16         -14.08         -13.23         -57.48         0.8803         -5.842          100.5          35.24
   0.02363              -20.77          21.08          3.004          48.16         -14.07         -13.23         -57.44         0.8908         -5.817          100.5          35.24
   0.02954              -20.78          21.08          3.006          48.16         -14.07         -13.23          -57.4          0.902         -5.791          100.5          35.24
   0.03545              -20.78          21.08          3.008          48.16         -14.07         -13.22         -57.36          0.914         -5.762          100.5          35.24
   0.04135              -20.79          21.08           3.01          48.16         -14.07         -13.22         -57.32         0.9267         -5.732          100.5          35.24
   0.04726               -20.8          21.09          3.012          48.16         -14.06         -13.22         -57.27         0.9405         -5.699          100.5          35.24
   0.05317              -20.81          21.09          3.014          48.16         -14.06         -13.21         -57.22         0.9551         -5.664          100.5          35.24
   0.05908              -20.82           21.1          3.016          48.16         -14.06         -13.21         -57.17         0.9709         -5.626          100.5          35.24
   0.06499              -20.83           21.1          3.019          48.16         -14.05          -13.2         -57.11         0.9879         -5.586          100.5          35.24
   0.07089              -20.84           21.1          3.021          48.16         -14.05          -13.2         -57.05          1.006         -5.542          100.5          35.24
    0.0768              -20.85          21.11          3.024          48.16         -14.04         -13.19         -56.98          1.026         -5.495          100.5          35.24
   0.08271              -20.86          21.11          3.027          48.16         -14.04         -13.18         -56.91          1.047         -5.444          100.5          35.24
   0.08862              -20.87          21.12          3.031          48.16         -14.03         -13.18         -56.83          1.071         -5.389          100.6          35.25
   0.09452              -20.89          21.13          3.035          48.16         -14.03         -13.17         -56.74          1.096         -5.329          100.6          35.25
    0.1004               -20.9          21.13          3.039          48.16         -14.02         -13.16         -56.65          1.123         -5.263          100.6          35.25
    0.1063              -20.92          21.14          3.043          48.16         -14.01         -13.15         -56.54          1.153         -5.192          100.6          35.25
    0.1122              -20.94          21.15          3.048          48.16         -14.01         -13.14         -56.43          1.186         -5.113          100.6          35.25
    0.1182              -20.96          21.16          3.053          48.16          -14.0         -13.13         -56.31          1.222         -5.027          100.6          35.25
    0.1241              -20.98          21.17          3.059          48.16         -13.99         -13.12         -56.17          1.262         -4.933          100.6          35.25
      0.13              -21.01          21.18          3.066          48.16         -13.98          -13.1         -56.02          1.306         -4.828          100.7          35.26
    0.1359              -21.04          21.19          3.073          48.16         -13.97         -13.09         -55.86          1.354         -4.712          100.7          35.26
    0.1418              -21.07           21.2          3.081          48.16         -13.95         -13.07         -55.67          1.409         -4.584          100.7          35.26
    0.1477               -21.1          21.22           3.09          48.16         -13.94         -13.05         -55.47          1.469          -4.44          100.7          35.26
    0.1536              -21.14          21.24            3.1          48.16         -13.92         -13.03         -55.24          1.536         -4.279          100.8          35.26
    0.1595              -21.18          21.25          3.111          48.16         -13.91         -13.01         -54.98          1.612         -4.098          100.8          35.27
    0.1654              -21.23          21.28          3.124          48.16         -13.89         -12.98         -54.68          1.698         -3.893          100.8          35.27
    0.1713              -21.29           21.3          3.138          48.16         -13.86         -12.95         -54.35          1.796         -3.661          100.9          35.28
    0.1772              -21.35          21.33          3.155          48.15         -13.84         -12.91         -53.97          1.907         -3.396          100.9          35.28
    0.1831              -21.42          21.36          3.173          48.15         -13.81         -12.87         -53.54          2.035         -3.092          101.0          35.29
     0.189              -21.51           21.4          3.195          48.15         -13.77         -12.83         -53.03          2.182          -2.74          101.0          35.29
     0.195              -21.61          21.44          3.221          48.15         -13.73         -12.78         -52.45          2.353         -2.332          101.1           35.3
    0.2009              -21.72          21.49           3.25          48.15         -13.69         -12.71         -51.77          2.554         -1.855          101.2          35.31
    0.2068              -21.86          21.55          3.285          48.15         -13.63         -12.64         -50.96           2.79         -1.292          101.3          35.32
    0.2127              -22.02          21.61          3.327          48.15         -13.57         -12.55          -50.0          3.071        -0.6227          101.4          35.33
    0.2186              -22.21           21.7          3.376          48.15         -13.49         -12.45         -48.85          3.407         0.1793          101.5          35.34
    0.2245              -22.44           21.8          3.437          48.15         -13.39         -12.32         -47.46          3.814          1.149          101.7          35.36
    0.2304              -22.72          21.92           3.51          48.14         -13.28         -12.16         -45.77          4.312          2.335          101.9          35.38
    0.2363              -23.07          22.07          3.601          48.14         -13.13         -11.97         -43.67          4.925          3.797          102.2           35.4
    0.2422              -23.51          22.26          3.714          48.14         -12.95         -11.73         -41.06          5.691          5.622          102.5          35.44
    0.2481              -24.06           22.5          3.856          48.13         -12.73         -11.43         -37.77          6.655          7.919          102.9          35.48
     0.254              -24.76           22.8          4.038          48.13         -12.44         -11.05         -33.59          7.881          10.84          103.4          35.53
    0.2599              -25.66          23.19           4.27          48.12         -12.08         -10.56         -28.23           9.45          14.58          104.1          35.59
    0.2659               -26.8          23.69          4.567          48.11         -11.61         -9.934         -21.36          11.46          19.38          105.0          35.68
    0.2718              -28.27          24.33          4.947           48.1         -11.01         -9.131         -12.59          14.04          25.51          106.0          35.78
    0.2777              -30.12          25.13          5.426          48.09         -10.25         -8.123         -1.555          17.27          33.21          107.4          35.92
    0.2836              -32.37           26.1          6.008          48.07         -9.331         -6.894          11.89          21.21           42.6          109.1          36.08
    0.2895              -34.97          27.23          6.683          48.05         -8.265         -5.469          27.48          25.78          53.49          111.0          36.27
    0.2954               -37.8          28.45          7.415          48.03          -7.11         -3.926          44.35          30.72          65.28          113.1          36.47
    0.3013              -40.62          29.68          8.146           48.0         -5.956         -2.383          61.23          35.67          77.06          115.2          36.68
    0.3072              -43.22          30.81          8.821          47.98         -4.889        -0.9585          76.82          40.24          87.95          117.1          36.87
    0.3131              -45.47          31.78          9.404          47.97         -3.969         0.2707          90.26          44.18          97.34          118.8          37.03
     0.319              -47.32          32.58          9.882          47.95         -3.214          1.279          101.3          47.41          105.0          120.2          37.16
    0.3249              -48.79          33.22          10.26          47.94         -2.614          2.082          110.1          49.98          111.2          121.3          37.27
    0.3308              -49.94          33.71          10.56          47.93         -2.144           2.71          116.9           52.0          116.0          122.1          37.35
    0.3367              -50.83           34.1          10.79          47.92         -1.778          3.199          122.3          53.57          119.7          122.8          37.42
    0.3427              -51.53          34.41          10.97          47.92         -1.491          3.581          126.5          54.79          122.6          123.3          37.47
    0.3486              -52.08          34.64          11.12          47.91         -1.266          3.882          129.8          55.76          124.9          123.7          37.51
    0.3545              -52.52          34.83          11.23          47.91         -1.088          4.121          132.4          56.52          126.8          124.0          37.54
    0.3604              -52.87          34.98          11.32          47.91        -0.9443          4.312          134.5          57.14          128.2          124.3          37.56
    0.3663              -53.15          35.11          11.39          47.91        -0.8281          4.467          136.2          57.63          129.4          124.5          37.59
    0.3722              -53.38          35.21          11.45           47.9        -0.7331          4.594          137.6          58.04          130.4          124.7           37.6
    0.3781              -53.58          35.29           11.5           47.9        -0.6545          4.699          138.7          58.38          131.2          124.8          37.62
